<svg width="341" height="465" viewBox="0 0 341 465" fill="none" xmlns="http://www.w3.org/2000/svg">
<rect width="341" height="465" fill="#1F1F1F"/>
<rect width="341" height="465" fill="#1F1F1F"/>
<path d="M126 110.477L206 103.877L206 92.0773L126 85.5773L126 93.8773L140.5 94.7773L140.5 100.277L126 100.877L126 110.477ZM150.7 99.6773L150.7 95.5773L182.6 97.9773L150.7 99.6773ZM196.4 132.842L206 132.842L206 113.442L126 113.442L126 122.742L161.4 122.742L161.4 130.342L171 130.342L171 122.742L196.4 122.742L196.4 132.842ZM195.5 157.098L206 157.098L206 134.898L195.5 134.898L195.5 141.598L126 141.598L126 150.898L195.5 150.898L195.5 157.098ZM126 179.717L135.6 179.717L135.6 169.617L162.4 169.617L162.4 176.417L172 176.417L172 169.617L196.4 169.617L196.4 179.717L206 179.717L206 160.317L126 160.317L126 179.717ZM126 207.271C129.9 206.671 134.3 205.971 139.4 205.971L156.4 205.971C160.2 205.971 162.6 203.971 164.7 201.471C166.8 203.971 169.2 205.771 173 205.771L193.4 205.771C203.6 205.771 206 199.871 206 195.171L206 183.071L126 183.071L126 192.471L160.4 192.471L160.4 194.671C160.4 196.071 159 196.771 157.2 196.771L138.4 196.771C134.2 196.771 129.5 197.271 126 197.971L126 207.271ZM172.7 196.571C170.4 196.571 169.5 195.971 169.5 194.871L169.5 192.471L196.4 192.471L196.4 194.871C196.4 195.971 195.5 196.571 193.2 196.571L172.7 196.571ZM126 241.143L135.6 241.143L135.6 231.043L162.4 231.043L162.4 237.843L172 237.843L172 231.043L196.4 231.043L196.4 241.143L206 241.143L206 221.743L126 221.743L126 241.143ZM196.4 263.897L206 263.897L206 244.497L126 244.497L126 253.797L161.4 253.797L161.4 261.397L171 261.397L171 253.797L196.4 253.797L196.4 263.897ZM196.4 286.553L206 286.553L206 267.153L126 267.153L126 276.453L161.4 276.453L161.4 284.053L171 284.053L171 276.453L196.4 276.453L196.4 286.553ZM126 309.209L135.6 309.209L135.6 299.109L162.4 299.109L162.4 305.909L172 305.909L172 299.109L196.4 299.109L196.4 309.209L206 309.209L206 289.809L126 289.809L126 309.209ZM138.7 335.263L155.1 335.263L155.1 326.163L138 326.163C136.2 326.163 135.1 325.263 135.1 323.763C135.1 322.263 136.2 321.363 138 321.363L194 321.363C195.8 321.363 196.9 322.263 196.9 323.763C196.9 325.263 195.8 326.163 194 326.163L176.9 326.163L176.9 335.263L193.3 335.263C201.4 335.263 207 330.263 207 323.763C207 317.263 201.4 312.263 193.3 312.263L138.7 312.263C130.6 312.263 125 317.263 125 323.763C125 330.263 130.6 335.263 138.7 335.263ZM195.5 360.321L206 360.321L206 338.121L195.5 338.121L195.5 344.821L126 344.821L126 354.121L195.5 354.121L195.5 360.321ZM140.4 386.34C148.8 386.34 159.2 382.24 169.4 377.94C179.9 373.54 183.2 371.74 193.8 371.74C196.2 371.74 197.4 373.34 197.4 374.64C197.4 375.94 196.2 377.44 193.8 377.44L181.6 377.44L181.6 386.14L192.3 386.14C200.4 386.14 207 381.34 207 374.84C207 366.24 200.4 362.34 191.1 362.34C182.8 362.34 170.2 367.54 162.1 371.04C152.7 375.14 146.3 376.94 138.3 376.94C135.7 376.94 134.1 375.74 134.1 373.94C134.1 372.04 136.2 370.64 138.3 370.64L149.4 370.64L149.4 362.04L139.7 362.04C131.6 362.04 125 366.64 125 374.14C125 378.94 127.9 386.34 140.4 386.34Z" fill="white"/>
</svg>
