<svg width="1695" height="670" viewBox="0 0 1695 670" fill="none" xmlns="http://www.w3.org/2000/svg">
<g style="mix-blend-mode:multiply">
<rect width="148" height="245" transform="matrix(-1 -8.74228e-08 -8.74228e-08 1 148 270)" fill="#FF2F2F"/>
</g>
<g style="mix-blend-mode:multiply">
<rect width="76" height="262" transform="matrix(1.19249e-08 1 1 -1.19249e-08 235 22)" fill="#FF2F2F"/>
</g>
<g style="mix-blend-mode:multiply">
<rect width="139" height="177" transform="matrix(1.19249e-08 1 1 -1.19249e-08 1104 0)" fill="#FF2F2F"/>
</g>
<g style="mix-blend-mode:multiply">
<rect width="248" height="177" transform="matrix(1.19249e-08 1 1 -1.19249e-08 1004 422)" fill="#FF2F2F"/>
</g>
<g style="mix-blend-mode:multiply">
<rect width="148" height="189" transform="matrix(1.19249e-08 1 1 -1.19249e-08 1506 441)" fill="#FF2F2F"/>
</g>
<g style="mix-blend-mode:multiply">
<rect width="125" height="133" transform="matrix(1 0 0 -1 327 581)" fill="#FF2F2F"/>
</g>
<g style="mix-blend-mode:multiply">
<rect width="181" height="245" transform="matrix(1 0 0 -1 685 422)" fill="#FF2F2F"/>
</g>
</svg>
