<svg width="35" height="41" viewBox="0 0 35 41" fill="none" xmlns="http://www.w3.org/2000/svg">
<path d="M13.5 0C14.3284 0 15 0.67158 15 1.5V6.5C15 7.32842 14.3284 8 13.5 8C12.6716 8 12 7.32842 12 6.5V1.5C12 0.67158 12.6716 0 13.5 0ZM3.9393 3.93962C4.52506 3.35382 5.47482 3.35378 6.06062 3.93954L9.56062 7.4393C10.1464 8.02506 10.1465 8.97482 9.5607 9.56062C8.97494 10.1464 8.02518 10.1465 7.43938 9.5607L3.93938 6.06094C3.35356 5.47518 3.35354 4.52542 3.9393 3.93962ZM23.0606 3.93958C23.6464 4.52538 23.6464 5.47512 23.0606 6.0609L19.5606 9.5609C18.9748 10.1467 18.0252 10.1467 17.4394 9.5609C16.8536 8.97512 16.8536 8.02538 17.4394 7.43958L20.9394 3.93958C21.5252 3.3538 22.4748 3.3538 23.0606 3.93958ZM0 13.5C0 12.6716 0.67158 12 1.5 12H6.5C7.32842 12 8 12.6716 8 13.5C8 14.3284 7.32842 15 6.5 15H1.5C0.67158 15 0 14.3284 0 13.5ZM12 14.9741C12 12.7204 14.6435 11.5045 16.3546 12.9712L33.2768 27.4758C35.0968 29.036 34.0608 32.0188 31.6654 32.1146L23.9854 32.4218C23.1602 32.4548 22.3836 32.8208 21.833 33.4362L16.6038 39.2806C14.9892 41.0852 12 39.943 12 37.5216V14.9741Z" fill="#212121"/>
</svg>
