<svg width="341" height="465" viewBox="0 0 341 465" fill="none" xmlns="http://www.w3.org/2000/svg">
<rect width="341" height="465" fill="#1F1F1F"/>
<rect width="341" height="465" fill="#1F1F1F"/>
<path d="M171.9 107.951L193.4 107.951C203.6 107.951 206 102.051 206 97.3508L206 85.2508L126 85.2508L126 94.6508L159.4 94.6508L159.4 97.3508C159.4 102.051 161.8 107.951 171.9 107.951ZM172.2 98.7508C169.9 98.7508 169 98.1508 169 97.0508L169 94.6508L196.4 94.6508L196.4 97.0508C196.4 98.1508 195.5 98.7508 193.2 98.7508L172.2 98.7508ZM126 135.916C129.9 135.316 134.3 134.616 139.4 134.616L156.4 134.616C160.2 134.616 162.6 132.616 164.7 130.116C166.8 132.616 169.2 134.416 173 134.416L193.4 134.416C203.6 134.416 206 128.516 206 123.816L206 111.716L126 111.716L126 121.116L160.4 121.116L160.4 123.316C160.4 124.716 159 125.416 157.2 125.416L138.4 125.416C134.2 125.416 129.5 125.916 126 126.616L126 135.916ZM172.7 125.216C170.4 125.216 169.5 124.616 169.5 123.516L169.5 121.116L196.4 121.116L196.4 123.516C196.4 124.616 195.5 125.216 193.2 125.216L172.7 125.216ZM126 158.264L135.6 158.264L135.6 148.164L162.4 148.164L162.4 154.964L172 154.964L172 148.164L196.4 148.164L196.4 158.264L206 158.264L206 138.864L126 138.864L126 158.264ZM126 199.018L206 199.018L206 187.118L160.8 180.518L206 175.318L206 161.618L126 161.618L126 169.918L182.1 169.918L126 176.218L126 182.718L182 189.718L126 189.718L126 199.018ZM126 213.115L206 213.115L206 203.715L126 203.715L126 213.115ZM126 237.17L135.6 237.17L135.6 227.07L162.4 227.07L162.4 233.87L172 233.87L172 227.07L196.4 227.07L196.4 237.17L206 237.17L206 217.77L126 217.77L126 237.17ZM126 264.724C129.9 264.124 134.3 263.424 139.4 263.424L156.4 263.424C160.2 263.424 162.6 261.424 164.7 258.924C166.8 261.424 169.2 263.224 173 263.224L193.4 263.224C203.6 263.224 206 257.324 206 252.624L206 240.524L126 240.524L126 249.924L160.4 249.924L160.4 252.124C160.4 253.524 159 254.224 157.2 254.224L138.4 254.224C134.2 254.224 129.5 254.724 126 255.424L126 264.724ZM172.7 254.024C170.4 254.024 169.5 253.424 169.5 252.324L169.5 249.924L196.4 249.924L196.4 252.324C196.4 253.424 195.5 254.024 193.2 254.024L172.7 254.024ZM126 287.073L135.6 287.073L135.6 276.973L162.4 276.973L162.4 283.773L172 283.773L172 276.973L196.4 276.973L196.4 287.073L206 287.073L206 267.673L126 267.673L126 287.073ZM171.9 324.65L193.4 324.65C203.6 324.65 206 318.75 206 314.05L206 301.95L126 301.95L126 311.35L159.4 311.35L159.4 314.05C159.4 318.75 161.8 324.65 171.9 324.65ZM172.2 315.45C169.9 315.45 169 314.85 169 313.75L169 311.35L196.4 311.35L196.4 313.75C196.4 314.85 195.5 315.45 193.2 315.45L172.2 315.45ZM126 352.615C129.9 352.015 134.3 351.315 139.4 351.315L156.4 351.315C160.2 351.315 162.6 349.315 164.7 346.815C166.8 349.315 169.2 351.115 173 351.115L193.4 351.115C203.6 351.115 206 345.215 206 340.515L206 328.415L126 328.415L126 337.815L160.4 337.815L160.4 340.015C160.4 341.415 159 342.115 157.2 342.115L138.4 342.115C134.2 342.115 129.5 342.615 126 343.315L126 352.615ZM172.7 341.915C170.4 341.915 169.5 341.315 169.5 340.215L169.5 337.815L196.4 337.815L196.4 340.215C196.4 341.315 195.5 341.915 193.2 341.915L172.7 341.915ZM138.7 379.063L193.3 379.063C201.4 379.063 207 373.663 207 367.163C207 360.663 201.4 355.263 193.3 355.263L138.7 355.263C130.6 355.263 125 360.663 125 367.163C125 373.663 130.6 379.063 138.7 379.063ZM138 369.563C136.2 369.563 135.1 368.663 135.1 367.163C135.1 365.563 136.2 364.663 138 364.663L194 364.663C195.8 364.663 196.9 365.563 196.9 367.163C196.9 368.663 195.8 369.563 194 369.563L138 369.563Z" fill="white"/>
</svg>
